<mxfile host="app.diagrams.net" modified="2022-09-03T00:14:44.843Z" agent="5.0 (Windows NT 10.0; Win64; x64) AppleWebKit/537.36 (KHTML, like Gecko) Chrome/105.0.0.0 Safari/537.36" etag="__xYaKvQ8zSLpln7euUf" version="20.2.8" type="github">
  <diagram id="qEjS0FeyeUqMyYrJyWod" name="PÃ¡gina-1">
    <mxGraphModel dx="868" dy="482" grid="0" gridSize="10" guides="1" tooltips="1" connect="1" arrows="1" fold="1" page="1" pageScale="1" pageWidth="827" pageHeight="1169" math="0" shadow="0">
      <root>
        <mxCell id="0" />
        <mxCell id="1" parent="0" />
        <mxCell id="ix1na--UKcskFis5accS-60" style="edgeStyle=none;rounded=0;orthogonalLoop=1;jettySize=auto;html=1;exitX=0.5;exitY=0;exitDx=0;exitDy=0;endArrow=baseDash;endFill=0;entryX=0.5;entryY=1;entryDx=0;entryDy=0;" edge="1" parent="1" source="ix1na--UKcskFis5accS-48" target="ix1na--UKcskFis5accS-61">
          <mxGeometry relative="1" as="geometry">
            <mxPoint x="255" y="180" as="targetPoint" />
          </mxGeometry>
        </mxCell>
        <mxCell id="ix1na--UKcskFis5accS-48" value="Cliente" style="rounded=0;whiteSpace=wrap;html=1;" vertex="1" parent="1">
          <mxGeometry x="220" y="240" width="70" height="20" as="geometry" />
        </mxCell>
        <mxCell id="ix1na--UKcskFis5accS-50" style="edgeStyle=none;rounded=0;orthogonalLoop=1;jettySize=auto;html=1;exitX=0.75;exitY=0;exitDx=0;exitDy=0;endArrow=baseDash;endFill=0;" edge="1" parent="1" source="ix1na--UKcskFis5accS-48" target="ix1na--UKcskFis5accS-48">
          <mxGeometry relative="1" as="geometry" />
        </mxCell>
        <mxCell id="ix1na--UKcskFis5accS-53" style="edgeStyle=none;rounded=0;orthogonalLoop=1;jettySize=auto;html=1;exitX=0;exitY=0.75;exitDx=0;exitDy=0;endArrow=baseDash;endFill=0;entryX=0;entryY=0.5;entryDx=0;entryDy=0;" edge="1" parent="1" source="ix1na--UKcskFis5accS-51" target="ix1na--UKcskFis5accS-55">
          <mxGeometry relative="1" as="geometry">
            <mxPoint x="290" y="360" as="targetPoint" />
          </mxGeometry>
        </mxCell>
        <mxCell id="ix1na--UKcskFis5accS-54" style="edgeStyle=none;rounded=0;orthogonalLoop=1;jettySize=auto;html=1;exitX=0;exitY=0.25;exitDx=0;exitDy=0;endArrow=baseDash;endFill=0;entryX=0;entryY=0.5;entryDx=0;entryDy=0;" edge="1" parent="1" source="ix1na--UKcskFis5accS-51" target="ix1na--UKcskFis5accS-56">
          <mxGeometry relative="1" as="geometry">
            <mxPoint x="220" y="360" as="targetPoint" />
          </mxGeometry>
        </mxCell>
        <mxCell id="ix1na--UKcskFis5accS-70" style="edgeStyle=none;rounded=0;orthogonalLoop=1;jettySize=auto;html=1;exitX=1;exitY=0.5;exitDx=0;exitDy=0;entryX=1;entryY=0.5;entryDx=0;entryDy=0;endArrow=baseDash;endFill=0;" edge="1" parent="1" source="ix1na--UKcskFis5accS-51" target="ix1na--UKcskFis5accS-48">
          <mxGeometry relative="1" as="geometry" />
        </mxCell>
        <mxCell id="ix1na--UKcskFis5accS-51" value="" style="triangle;whiteSpace=wrap;html=1;rotation=-180;" vertex="1" parent="1">
          <mxGeometry x="325" y="226.66" width="35" height="46.67" as="geometry" />
        </mxCell>
        <mxCell id="ix1na--UKcskFis5accS-106" style="edgeStyle=none;rounded=0;orthogonalLoop=1;jettySize=auto;html=1;exitX=1;exitY=0;exitDx=0;exitDy=0;entryX=0;entryY=1;entryDx=0;entryDy=0;endArrow=none;endFill=0;" edge="1" parent="1" source="ix1na--UKcskFis5accS-55" target="ix1na--UKcskFis5accS-105">
          <mxGeometry relative="1" as="geometry" />
        </mxCell>
        <mxCell id="ix1na--UKcskFis5accS-113" style="edgeStyle=none;rounded=0;orthogonalLoop=1;jettySize=auto;html=1;exitX=0.75;exitY=0;exitDx=0;exitDy=0;entryX=0.5;entryY=1;entryDx=0;entryDy=0;fontSize=9;endArrow=none;endFill=0;" edge="1" parent="1" source="ix1na--UKcskFis5accS-55" target="ix1na--UKcskFis5accS-112">
          <mxGeometry relative="1" as="geometry" />
        </mxCell>
        <mxCell id="ix1na--UKcskFis5accS-55" value="Mensalista" style="rounded=0;whiteSpace=wrap;html=1;" vertex="1" parent="1">
          <mxGeometry x="397.5" y="226.66" width="70" height="20" as="geometry" />
        </mxCell>
        <mxCell id="ix1na--UKcskFis5accS-81" style="edgeStyle=none;rounded=0;orthogonalLoop=1;jettySize=auto;html=1;exitX=1;exitY=0.5;exitDx=0;exitDy=0;entryX=0;entryY=0.5;entryDx=0;entryDy=0;endArrow=none;endFill=0;" edge="1" parent="1" source="ix1na--UKcskFis5accS-56" target="ix1na--UKcskFis5accS-80">
          <mxGeometry relative="1" as="geometry" />
        </mxCell>
        <mxCell id="ix1na--UKcskFis5accS-56" value="Avulso" style="rounded=0;whiteSpace=wrap;html=1;" vertex="1" parent="1">
          <mxGeometry x="397.5" y="260" width="70" height="20" as="geometry" />
        </mxCell>
        <mxCell id="ix1na--UKcskFis5accS-59" style="edgeStyle=none;rounded=0;orthogonalLoop=1;jettySize=auto;html=1;exitX=0.5;exitY=1;exitDx=0;exitDy=0;endArrow=none;endFill=0;entryX=0;entryY=0;entryDx=0;entryDy=0;" edge="1" parent="1" source="ix1na--UKcskFis5accS-58" target="ix1na--UKcskFis5accS-55">
          <mxGeometry relative="1" as="geometry">
            <mxPoint x="515" y="220" as="targetPoint" />
          </mxGeometry>
        </mxCell>
        <mxCell id="ix1na--UKcskFis5accS-58" value="&lt;u&gt;Nome&lt;/u&gt;" style="ellipse;whiteSpace=wrap;html=1;" vertex="1" parent="1">
          <mxGeometry x="380" y="190" width="45" height="30" as="geometry" />
        </mxCell>
        <mxCell id="ix1na--UKcskFis5accS-63" style="edgeStyle=none;rounded=0;orthogonalLoop=1;jettySize=auto;html=1;exitX=0.5;exitY=0;exitDx=0;exitDy=0;entryX=0.5;entryY=1;entryDx=0;entryDy=0;endArrow=baseDash;endFill=0;" edge="1" parent="1" source="ix1na--UKcskFis5accS-61" target="ix1na--UKcskFis5accS-62">
          <mxGeometry relative="1" as="geometry" />
        </mxCell>
        <mxCell id="ix1na--UKcskFis5accS-61" value="Deixa" style="rhombus;whiteSpace=wrap;html=1;" vertex="1" parent="1">
          <mxGeometry x="220" y="160" width="70" height="50" as="geometry" />
        </mxCell>
        <mxCell id="ix1na--UKcskFis5accS-62" value="Carro" style="rounded=0;whiteSpace=wrap;html=1;" vertex="1" parent="1">
          <mxGeometry x="230" y="110" width="50" height="20" as="geometry" />
        </mxCell>
        <mxCell id="ix1na--UKcskFis5accS-67" style="edgeStyle=none;rounded=0;orthogonalLoop=1;jettySize=auto;html=1;exitX=1;exitY=1;exitDx=0;exitDy=0;entryX=0;entryY=0;entryDx=0;entryDy=0;endArrow=baseDash;endFill=0;" edge="1" parent="1" source="ix1na--UKcskFis5accS-64" target="ix1na--UKcskFis5accS-62">
          <mxGeometry relative="1" as="geometry" />
        </mxCell>
        <mxCell id="ix1na--UKcskFis5accS-64" value="Placa" style="ellipse;whiteSpace=wrap;html=1;" vertex="1" parent="1">
          <mxGeometry x="175" y="70" width="45" height="30" as="geometry" />
        </mxCell>
        <mxCell id="ix1na--UKcskFis5accS-68" style="edgeStyle=none;rounded=0;orthogonalLoop=1;jettySize=auto;html=1;exitX=0.5;exitY=1;exitDx=0;exitDy=0;entryX=0.5;entryY=0;entryDx=0;entryDy=0;endArrow=baseDash;endFill=0;" edge="1" parent="1" source="ix1na--UKcskFis5accS-65" target="ix1na--UKcskFis5accS-62">
          <mxGeometry relative="1" as="geometry" />
        </mxCell>
        <mxCell id="ix1na--UKcskFis5accS-65" value="Cor" style="ellipse;whiteSpace=wrap;html=1;" vertex="1" parent="1">
          <mxGeometry x="227.5" y="50" width="45" height="30" as="geometry" />
        </mxCell>
        <mxCell id="ix1na--UKcskFis5accS-69" style="edgeStyle=none;rounded=0;orthogonalLoop=1;jettySize=auto;html=1;exitX=0;exitY=1;exitDx=0;exitDy=0;entryX=1;entryY=0;entryDx=0;entryDy=0;endArrow=baseDash;endFill=0;" edge="1" parent="1" source="ix1na--UKcskFis5accS-66" target="ix1na--UKcskFis5accS-62">
          <mxGeometry relative="1" as="geometry" />
        </mxCell>
        <mxCell id="ix1na--UKcskFis5accS-66" value="Marca" style="ellipse;whiteSpace=wrap;html=1;" vertex="1" parent="1">
          <mxGeometry x="280" y="60" width="45" height="30" as="geometry" />
        </mxCell>
        <mxCell id="ix1na--UKcskFis5accS-73" style="edgeStyle=none;rounded=0;orthogonalLoop=1;jettySize=auto;html=1;exitX=0;exitY=0.5;exitDx=0;exitDy=0;entryX=1;entryY=0.5;entryDx=0;entryDy=0;endArrow=none;endFill=0;" edge="1" parent="1" source="ix1na--UKcskFis5accS-72" target="ix1na--UKcskFis5accS-62">
          <mxGeometry relative="1" as="geometry" />
        </mxCell>
        <mxCell id="ix1na--UKcskFis5accS-72" value="Ocupa" style="rhombus;whiteSpace=wrap;html=1;" vertex="1" parent="1">
          <mxGeometry x="312.5" y="100" width="60" height="40" as="geometry" />
        </mxCell>
        <mxCell id="ix1na--UKcskFis5accS-75" style="edgeStyle=none;rounded=0;orthogonalLoop=1;jettySize=auto;html=1;exitX=0;exitY=0.5;exitDx=0;exitDy=0;entryX=1;entryY=0.5;entryDx=0;entryDy=0;endArrow=none;endFill=0;" edge="1" parent="1" source="ix1na--UKcskFis5accS-74" target="ix1na--UKcskFis5accS-72">
          <mxGeometry relative="1" as="geometry" />
        </mxCell>
        <mxCell id="ix1na--UKcskFis5accS-74" value="Vaga" style="rounded=0;whiteSpace=wrap;html=1;" vertex="1" parent="1">
          <mxGeometry x="390" y="110" width="60" height="20" as="geometry" />
        </mxCell>
        <mxCell id="ix1na--UKcskFis5accS-77" style="edgeStyle=none;rounded=0;orthogonalLoop=1;jettySize=auto;html=1;exitX=0.5;exitY=1;exitDx=0;exitDy=0;entryX=0.25;entryY=0;entryDx=0;entryDy=0;endArrow=none;endFill=0;" edge="1" parent="1" source="ix1na--UKcskFis5accS-76" target="ix1na--UKcskFis5accS-74">
          <mxGeometry relative="1" as="geometry" />
        </mxCell>
        <mxCell id="ix1na--UKcskFis5accS-76" value="&lt;u&gt;ID&lt;/u&gt;" style="ellipse;whiteSpace=wrap;html=1;" vertex="1" parent="1">
          <mxGeometry x="387.5" y="80" width="30" height="20" as="geometry" />
        </mxCell>
        <mxCell id="ix1na--UKcskFis5accS-79" style="edgeStyle=none;rounded=0;orthogonalLoop=1;jettySize=auto;html=1;exitX=0.5;exitY=1;exitDx=0;exitDy=0;entryX=0.75;entryY=0;entryDx=0;entryDy=0;endArrow=none;endFill=0;" edge="1" parent="1" source="ix1na--UKcskFis5accS-78" target="ix1na--UKcskFis5accS-74">
          <mxGeometry relative="1" as="geometry" />
        </mxCell>
        <mxCell id="ix1na--UKcskFis5accS-78" value="&lt;u&gt;Status&lt;/u&gt;" style="ellipse;whiteSpace=wrap;html=1;" vertex="1" parent="1">
          <mxGeometry x="425" y="80" width="52.5" height="20" as="geometry" />
        </mxCell>
        <mxCell id="ix1na--UKcskFis5accS-82" style="edgeStyle=none;rounded=0;orthogonalLoop=1;jettySize=auto;html=1;exitX=1;exitY=0.5;exitDx=0;exitDy=0;endArrow=none;endFill=0;entryX=0;entryY=0.5;entryDx=0;entryDy=0;" edge="1" parent="1" source="ix1na--UKcskFis5accS-80" target="ix1na--UKcskFis5accS-83">
          <mxGeometry relative="1" as="geometry">
            <mxPoint x="600" y="270" as="targetPoint" />
          </mxGeometry>
        </mxCell>
        <mxCell id="ix1na--UKcskFis5accS-80" value="Recebe" style="rhombus;whiteSpace=wrap;html=1;" vertex="1" parent="1">
          <mxGeometry x="490" y="250" width="60" height="40" as="geometry" />
        </mxCell>
        <mxCell id="ix1na--UKcskFis5accS-109" style="edgeStyle=none;rounded=0;orthogonalLoop=1;jettySize=auto;html=1;exitX=1;exitY=0;exitDx=0;exitDy=0;entryX=0;entryY=0.5;entryDx=0;entryDy=0;endArrow=none;endFill=0;" edge="1" parent="1" source="ix1na--UKcskFis5accS-83" target="ix1na--UKcskFis5accS-108">
          <mxGeometry relative="1" as="geometry" />
        </mxCell>
        <mxCell id="ix1na--UKcskFis5accS-83" value="Comprovante" style="rounded=0;whiteSpace=wrap;html=1;" vertex="1" parent="1">
          <mxGeometry x="590" y="260" width="90" height="20" as="geometry" />
        </mxCell>
        <mxCell id="ix1na--UKcskFis5accS-84" value="Comprovante.M" style="rounded=0;whiteSpace=wrap;html=1;" vertex="1" parent="1">
          <mxGeometry x="532.5" y="155" width="100" height="20" as="geometry" />
        </mxCell>
        <mxCell id="ix1na--UKcskFis5accS-92" style="edgeStyle=none;rounded=0;orthogonalLoop=1;jettySize=auto;html=1;exitX=0.5;exitY=0;exitDx=0;exitDy=0;entryX=0.25;entryY=1;entryDx=0;entryDy=0;endArrow=none;endFill=0;" edge="1" parent="1" source="ix1na--UKcskFis5accS-85" target="ix1na--UKcskFis5accS-83">
          <mxGeometry relative="1" as="geometry" />
        </mxCell>
        <mxCell id="ix1na--UKcskFis5accS-85" value="ID" style="ellipse;whiteSpace=wrap;html=1;" vertex="1" parent="1">
          <mxGeometry x="582.5" y="300" width="30" height="20" as="geometry" />
        </mxCell>
        <mxCell id="ix1na--UKcskFis5accS-89" style="edgeStyle=none;rounded=0;orthogonalLoop=1;jettySize=auto;html=1;exitX=0.5;exitY=1;exitDx=0;exitDy=0;entryX=0.25;entryY=0;entryDx=0;entryDy=0;endArrow=none;endFill=0;" edge="1" parent="1" source="ix1na--UKcskFis5accS-86" target="ix1na--UKcskFis5accS-83">
          <mxGeometry relative="1" as="geometry" />
        </mxCell>
        <mxCell id="ix1na--UKcskFis5accS-86" value="Placa" style="ellipse;whiteSpace=wrap;html=1;" vertex="1" parent="1">
          <mxGeometry x="560" y="216.66" width="45" height="30" as="geometry" />
        </mxCell>
        <mxCell id="ix1na--UKcskFis5accS-90" style="edgeStyle=none;rounded=0;orthogonalLoop=1;jettySize=auto;html=1;exitX=0.5;exitY=1;exitDx=0;exitDy=0;entryX=0.5;entryY=0;entryDx=0;entryDy=0;endArrow=none;endFill=0;" edge="1" parent="1" source="ix1na--UKcskFis5accS-87" target="ix1na--UKcskFis5accS-83">
          <mxGeometry relative="1" as="geometry" />
        </mxCell>
        <mxCell id="ix1na--UKcskFis5accS-87" value="Cor" style="ellipse;whiteSpace=wrap;html=1;" vertex="1" parent="1">
          <mxGeometry x="612.5" y="216.66" width="45" height="30" as="geometry" />
        </mxCell>
        <mxCell id="ix1na--UKcskFis5accS-91" style="edgeStyle=none;rounded=0;orthogonalLoop=1;jettySize=auto;html=1;exitX=0;exitY=1;exitDx=0;exitDy=0;entryX=0.75;entryY=0;entryDx=0;entryDy=0;endArrow=none;endFill=0;" edge="1" parent="1" source="ix1na--UKcskFis5accS-88" target="ix1na--UKcskFis5accS-83">
          <mxGeometry relative="1" as="geometry" />
        </mxCell>
        <mxCell id="ix1na--UKcskFis5accS-88" value="Marca" style="ellipse;whiteSpace=wrap;html=1;" vertex="1" parent="1">
          <mxGeometry x="670" y="216.66" width="45" height="30" as="geometry" />
        </mxCell>
        <mxCell id="ix1na--UKcskFis5accS-96" style="edgeStyle=none;rounded=0;orthogonalLoop=1;jettySize=auto;html=1;exitX=0.5;exitY=0;exitDx=0;exitDy=0;entryX=0.5;entryY=1;entryDx=0;entryDy=0;endArrow=none;endFill=0;" edge="1" parent="1" source="ix1na--UKcskFis5accS-94" target="ix1na--UKcskFis5accS-83">
          <mxGeometry relative="1" as="geometry" />
        </mxCell>
        <mxCell id="ix1na--UKcskFis5accS-94" value="HorÃ¡rio.E" style="ellipse;whiteSpace=wrap;html=1;" vertex="1" parent="1">
          <mxGeometry x="612.5" y="310" width="90" height="20" as="geometry" />
        </mxCell>
        <mxCell id="ix1na--UKcskFis5accS-97" style="edgeStyle=none;rounded=0;orthogonalLoop=1;jettySize=auto;html=1;exitX=0;exitY=0.5;exitDx=0;exitDy=0;entryX=1;entryY=1;entryDx=0;entryDy=0;endArrow=none;endFill=0;" edge="1" parent="1" source="ix1na--UKcskFis5accS-95" target="ix1na--UKcskFis5accS-83">
          <mxGeometry relative="1" as="geometry" />
        </mxCell>
        <mxCell id="ix1na--UKcskFis5accS-95" value="HorÃ¡rio.S" style="ellipse;whiteSpace=wrap;html=1;" vertex="1" parent="1">
          <mxGeometry x="700" y="280" width="90" height="20" as="geometry" />
        </mxCell>
        <mxCell id="ix1na--UKcskFis5accS-100" style="edgeStyle=none;rounded=0;orthogonalLoop=1;jettySize=auto;html=1;exitX=0;exitY=1;exitDx=0;exitDy=0;entryX=1;entryY=0;entryDx=0;entryDy=0;endArrow=none;endFill=0;" edge="1" parent="1" source="ix1na--UKcskFis5accS-98" target="ix1na--UKcskFis5accS-84">
          <mxGeometry relative="1" as="geometry" />
        </mxCell>
        <mxCell id="ix1na--UKcskFis5accS-98" value="HorÃ¡rio.S" style="ellipse;whiteSpace=wrap;html=1;" vertex="1" parent="1">
          <mxGeometry x="625" y="130" width="90" height="20" as="geometry" />
        </mxCell>
        <mxCell id="ix1na--UKcskFis5accS-101" style="edgeStyle=none;rounded=0;orthogonalLoop=1;jettySize=auto;html=1;exitX=0.5;exitY=1;exitDx=0;exitDy=0;entryX=0.75;entryY=0;entryDx=0;entryDy=0;endArrow=none;endFill=0;" edge="1" parent="1" source="ix1na--UKcskFis5accS-99" target="ix1na--UKcskFis5accS-84">
          <mxGeometry relative="1" as="geometry" />
        </mxCell>
        <mxCell id="ix1na--UKcskFis5accS-99" value="HorÃ¡rio.E" style="ellipse;whiteSpace=wrap;html=1;" vertex="1" parent="1">
          <mxGeometry x="565" y="110" width="90" height="20" as="geometry" />
        </mxCell>
        <mxCell id="ix1na--UKcskFis5accS-103" style="edgeStyle=none;rounded=0;orthogonalLoop=1;jettySize=auto;html=1;exitX=1;exitY=1;exitDx=0;exitDy=0;entryX=0.25;entryY=0;entryDx=0;entryDy=0;endArrow=none;endFill=0;" edge="1" parent="1" source="ix1na--UKcskFis5accS-102" target="ix1na--UKcskFis5accS-84">
          <mxGeometry relative="1" as="geometry" />
        </mxCell>
        <mxCell id="ix1na--UKcskFis5accS-102" value="Nome" style="ellipse;whiteSpace=wrap;html=1;" vertex="1" parent="1">
          <mxGeometry x="510" y="110" width="45" height="30" as="geometry" />
        </mxCell>
        <mxCell id="ix1na--UKcskFis5accS-107" style="edgeStyle=none;rounded=0;orthogonalLoop=1;jettySize=auto;html=1;exitX=1;exitY=0;exitDx=0;exitDy=0;entryX=0;entryY=0.75;entryDx=0;entryDy=0;endArrow=none;endFill=0;" edge="1" parent="1" source="ix1na--UKcskFis5accS-105" target="ix1na--UKcskFis5accS-84">
          <mxGeometry relative="1" as="geometry" />
        </mxCell>
        <mxCell id="ix1na--UKcskFis5accS-105" value="Recebe" style="rhombus;whiteSpace=wrap;html=1;" vertex="1" parent="1">
          <mxGeometry x="467.5" y="176.66" width="60" height="40" as="geometry" />
        </mxCell>
        <mxCell id="ix1na--UKcskFis5accS-108" value="Valor" style="ellipse;whiteSpace=wrap;html=1;" vertex="1" parent="1">
          <mxGeometry x="702.5" y="246.66" width="45" height="30" as="geometry" />
        </mxCell>
        <mxCell id="ix1na--UKcskFis5accS-111" style="edgeStyle=none;rounded=0;orthogonalLoop=1;jettySize=auto;html=1;exitX=0;exitY=0;exitDx=0;exitDy=0;entryX=0.75;entryY=1;entryDx=0;entryDy=0;endArrow=none;endFill=0;" edge="1" parent="1" source="ix1na--UKcskFis5accS-110" target="ix1na--UKcskFis5accS-83">
          <mxGeometry relative="1" as="geometry" />
        </mxCell>
        <mxCell id="ix1na--UKcskFis5accS-110" value="PreÃ§o" style="ellipse;whiteSpace=wrap;html=1;" vertex="1" parent="1">
          <mxGeometry x="702.5" y="305" width="45" height="30" as="geometry" />
        </mxCell>
        <mxCell id="ix1na--UKcskFis5accS-112" value="&lt;font style=&quot;font-size: 9px;&quot;&gt;mensalidade&lt;/font&gt;" style="ellipse;whiteSpace=wrap;html=1;" vertex="1" parent="1">
          <mxGeometry x="407.5" y="165" width="70" height="25" as="geometry" />
        </mxCell>
      </root>
    </mxGraphModel>
  </diagram>
</mxfile>
